<?xml version="1.0" encoding="utf-8"?>
<!-- Generator: Adobe Illustrator 17.1.0, SVG Export Plug-In . SVG Version: 6.00 Build 0)  -->
<!DOCTYPE svg PUBLIC "-//W3C//DTD SVG 1.1//EN" "http://www.w3.org/Graphics/SVG/1.1/DTD/svg11.dtd">
<svg version="1.1" id="Layer_1" xmlns="http://www.w3.org/2000/svg" xmlns:xlink="http://www.w3.org/1999/xlink" x="0px" y="0px"
	 viewBox="0 0 322 238" enable-background="new 0 0 322 238" xml:space="preserve">
<g>
	<g>
		<path fill="#FFFFFF" d="M61.857,74.975c8.699,3.588,18.57-0.514,22.113-9.112c3.562-8.575-0.514-18.545-9.211-22.115
			c-8.527-3.502-18.441,0.681-21.988,9.29C49.224,61.604,53.326,71.48,61.857,74.975"/>
		<path fill="#FFFFFF" d="M23.568,97.415c8.701,3.588,18.57-0.514,22.113-9.112c3.562-8.575-0.514-18.545-9.211-22.115
			c-8.527-3.502-18.441,0.68-21.988,9.29C10.935,84.045,15.036,93.92,23.568,97.415"/>
		<path fill="#FFFFFF" d="M12.363,139.985c8.701,3.588,18.572-0.514,22.115-9.113c3.562-8.575-0.516-18.544-9.211-22.115
			c-8.527-3.502-18.441,0.681-21.99,9.29C-0.27,126.614,3.833,136.491,12.363,139.985"/>
		<path fill="#FFFFFF" d="M104.587,88.466c8.699,3.588,18.57-0.514,22.113-9.112c3.563-8.575-0.514-18.545-9.211-22.115
			c-8.527-3.502-18.441,0.681-21.988,9.29C91.954,75.096,96.056,84.972,104.587,88.466"/>
		<path fill="#FFFFFF" d="M259.411,74.975c-8.701,3.588-18.57-0.514-22.115-9.112c-3.561-8.575,0.514-18.545,9.211-22.115
			c8.529-3.502,18.443,0.681,21.99,9.29C272.044,61.604,267.943,71.48,259.411,74.975"/>
		<path fill="#FFFFFF" d="M297.701,97.415c-8.703,3.588-18.572-0.514-22.115-9.112c-3.561-8.575,0.514-18.545,9.211-22.115
			c8.529-3.502,18.443,0.68,21.99,9.29C310.333,84.045,306.23,93.92,297.701,97.415"/>
		<path fill="#FFFFFF" d="M308.904,139.985c-8.699,3.588-18.57-0.514-22.113-9.113c-3.562-8.575,0.514-18.544,9.211-22.115
			c8.527-3.502,18.441,0.681,21.988,9.29C321.538,126.614,317.435,136.491,308.904,139.985"/>
		<path fill="#FFFFFF" d="M216.681,88.466c-8.701,3.588-18.57-0.514-22.115-9.112c-3.561-8.575,0.514-18.545,9.211-22.115
			c8.529-3.502,18.443,0.681,21.99,9.29C229.314,75.096,225.212,84.972,216.681,88.466"/>
	</g>
	<path fill="#FFFFFF" d="M169.55,44.824l0.051-0.049l21.375,11.226V24.497l-21.35,6.759l-0.061-0.063
		c-0.598-0.785-1.291-1.488-2.072-2.093l-0.059-0.061L176.023,2l-15.424,0.002L145.169,2l8.59,27.039l-0.059,0.061
		c-0.779,0.604-1.477,1.308-2.07,2.093l-0.064,0.063l-21.346-6.759v31.504l21.375-11.226l0.051,0.049
		c0.633,0.828,1.375,1.564,2.209,2.188l-12.275,37.032c-0.016,0.046-0.031,0.092-0.045,0.137l-0.014,0.039l0.004,0.004
		c-0.57,1.849-0.877,3.811-0.877,5.846c0,10.02,7.393,18.29,17.02,19.711c0.143,0.022,0.283,0.047,0.428,0.064
		c0.82,0.104,1.65,0.175,2.5,0.175l0,0c0,0,0,0,0.004,0l0,0c0,0,0,0,0.002,0c0.848,0,1.678-0.07,2.5-0.175
		c0.143-0.018,0.283-0.042,0.428-0.064c9.623-1.421,17.02-9.691,17.02-19.711c0-2.035-0.311-3.997-0.877-5.846l0.002-0.004
		l-0.012-0.039c-0.016-0.045-0.031-0.091-0.047-0.137l-12.273-37.032C168.173,46.389,168.917,45.652,169.55,44.824z"/>
	<path fill="#FFFFFF" d="M160.599,226.046c40.582,0,78.996,2.75,113.221,7.648c9.717-40.848,21.541-64.254,33.75-80.918l-22.99-8.18
		c2.287,11.672,2.652,17.105,0.092,24.609c-3.791-3.707-7.385-10.523-10.189-20.941l-11.137,37.098
		c6.777-4.668,12.004-7.684,17.984-7.828c-10.609,22.844-23.852,28.723-32.434,27.137c-10.48-1.924-15.297-11.268-13.672-19.191
		c2.41-11.234,13.936-14.162,19.32-1.098c10.295-21.002-7.172-27.545-18.414-21.332c17.266-17.221,19.242-32.527,5.305-51.051
		c-19.418,14.842-19.645,29.541-10.906,50.221c-11.34-12.977-28.982-6.01-22.609,14.959c8.178-12.66,19.002-4.697,17.303,7.326
		c-1.436,10.48-15.271,18.943-32.498,17.443c-24.688-2.238-26.158-19.275-26.773-33.373c6.07-1.125,16.998,4.5,26.316,17.586
		l3.434-39.348c-10.139,10.564-19.35,12.568-29.582,12.893c3.406-10.625,19.061-28.037,19.061-28.037l-22.744-0.002h-0.012h-0.01
		l-26.346,0.002c0,0,15.654,17.412,19.059,28.037c-10.23-0.324-19.441-2.328-29.582-12.893l3.436,39.348
		c9.32-13.086,20.246-18.711,26.316-17.586c-0.613,14.098-2.084,31.135-26.773,33.373c-17.227,1.5-31.061-6.963-32.498-17.443
		c-1.699-12.023,9.125-19.986,17.305-7.326c6.373-20.969-11.273-27.936-22.609-14.959c8.738-20.68,8.508-35.379-10.908-50.221
		c-13.938,18.524-11.963,33.831,5.303,51.051c-11.24-6.213-28.707,0.33-18.41,21.332c5.383-13.064,16.91-10.137,19.32,1.098
		c1.625,7.924-3.195,17.268-13.672,19.191c-8.582,1.586-21.826-4.293-32.434-27.137c5.98,0.145,11.203,3.16,17.984,7.828
		l-11.137-37.098c-2.809,10.418-6.398,17.234-10.191,20.941c-2.562-7.504-2.195-12.938,0.09-24.609l-22.988,8.18
		c12.211,16.662,24.031,40.066,33.746,80.908C81.638,228.792,120.033,226.046,160.599,226.046z"/>
</g>
</svg>
